<svg xmlns="http://www.w3.org/2000/svg" viewBox="15 73 42 42">
  <!-- DEPT asterisk mark -->
  <path d="M55.0308 91.4596V96.5428H44.3052L53.0172 102.875L50.0868 107.019L41.3244 100.643L44.712 111.081L39.9276 112.76L37.1556 104.219C36.9384 103.535 36.8328 102.808 36.8328 102.069C36.8328 98.9356 38.73 95.572 42.1572 94.2652V93.7312C38.7324 92.4232 36.8328 89.0572 36.8328 85.9276C36.8328 85.1884 36.9384 84.4612 37.1556 83.7772L39.9276 75.2368L44.712 76.9156L41.3244 87.3532L50.0868 80.9776L53.0172 85.1212L44.3052 91.4536H55.0308V91.4608V91.4596Z" fill="#FF4800"/>
  <path d="M16.9692 91.4597V96.5429H27.6948L18.9828 102.878L21.9132 107.021L30.6756 100.646L27.288 111.083L32.0724 112.764L34.8444 104.224C35.0616 103.54 35.1672 102.813 35.1672 102.074C35.1672 98.9405 33.27 95.5769 29.8428 94.2701V93.7361C33.2676 92.4281 35.1672 89.0621 35.1672 85.9325C35.1672 85.1933 35.0616 84.4661 34.8444 83.7821L32.0724 75.2417L27.288 76.9205L30.6756 87.3581L21.9132 80.9825L18.9828 85.1261L27.6948 91.4585H16.9692V91.4609V91.4597Z" fill="#FF4800"/>
</svg>
