<svg xmlns="http://www.w3.org/2000/svg" style="display:none">
  <!-- DEPT asterisk mark (BrandHeader.tsx) -->
  <symbol id="dept-mark" viewBox="15 73 42 42">
    <path d="M55.0308 91.4596V96.5428H44.3052L53.0172 102.875L50.0868 107.019L41.3244 100.643L44.712 111.081L39.9276 112.76L37.1556 104.219C36.9384 103.535 36.8328 102.808 36.8328 102.069C36.8328 98.9356 38.73 95.572 42.1572 94.2652V93.7312C38.7324 92.4232 36.8328 89.0572 36.8328 85.9276C36.8328 85.1884 36.9384 84.4612 37.1556 83.7772L39.9276 75.2368L44.712 76.9156L41.3244 87.3532L50.0868 80.9776L53.0172 85.1212L44.3052 91.4536H55.0308V91.4608V91.4596Z" fill="currentColor"/>
    <path d="M16.9692 91.4597V96.5429H27.6948L18.9828 102.878L21.9132 107.021L30.6756 100.646L27.288 111.083L32.0724 112.764L34.8444 104.224C35.0616 103.54 35.1672 102.813 35.1672 102.074C35.1672 98.9405 33.27 95.5769 29.8428 94.2701V93.7361C33.2676 92.4281 35.1672 89.0621 35.1672 85.9325C35.1672 85.1933 35.0616 84.4661 34.8444 83.7821L32.0724 75.2417L27.288 76.9205L30.6756 87.3581L21.9132 80.9825L18.9828 85.1261L27.6948 91.4585H16.9692V91.4609V91.4597Z" fill="currentColor"/>
  </symbol>

  <!-- Page-tab icons (from page-registry.tsx) -->
  <symbol id="ic-text" viewBox="0 0 24 24"><path fill="currentColor" d="M18 6v8l-1.95 4h-4.2l1.95-4H12V6zm-1 7.77V7h-4v6h2.4l-1.95 4h1.97zM11 6v8l-1.95 4h-4.2l1.95-4H5V6zm-1 7.77V7H6v6h2.4l-1.95 4h1.97z"/></symbol>
  <symbol id="ic-sheets" viewBox="0 0 24 24"><path fill="currentColor" d="M5 3h13a3 3 0 0 1 3 3v13a3 3 0 0 1-3 3H5a3 3 0 0 1-3-3V6a3 3 0 0 1 3-3m0 1a2 2 0 0 0-2 2v3h5V4zM3 19a2 2 0 0 0 2 2h3v-5H3zm5-9H3v5h5zm10 11a2 2 0 0 0 2-2v-3h-5v5zm2-11h-5v5h5zm0-4a2 2 0 0 0-2-2h-3v5h5zM9 4v5h5V4zm0 17h5v-5H9zm5-11H9v5h5z"/></symbol>
  <symbol id="ic-dupes" viewBox="0 0 24 24"><path fill="currentColor" d="M18 22h-8a3 3 0 0 1-3-3v-1h1v1a2 2 0 0 0 2 2h8a2 2 0 0 0 2-2v-8a2 2 0 0 0-2-2h-1V8h1a3 3 0 0 1 3 3v8a3 3 0 0 1-3 3m-6-6H4a3 3 0 0 1-3-3V5a3 3 0 0 1 3-3h8a3 3 0 0 1 3 3v8a3 3 0 0 1-3 3m0-1a2 2 0 0 0 2-2V5a2 2 0 0 0-2-2H4a2 2 0 0 0-2 2v8a2 2 0 0 0 2 2z"/></symbol>
  <symbol id="ic-render" viewBox="0 0 24 24"><path fill="currentColor" d="M8 5v14l11-7z"/></symbol>
  <symbol id="ic-cleanup" viewBox="0 0 24 24"><path fill="currentColor" d="M15 16h4v2h-4zm0-8h7v2h-7zm0 4h6v2h-6zM3 18c0 1.1.9 2 2 2h6c1.1 0 2-.9 2-2V8H3v10zM14 5h-3l-1-1H6L5 5H2v2h12z"/></symbol>
  <symbol id="ic-bake" viewBox="340 320 450 440">
    <path fill="#ef4444" d="M782.323 510.694V569.168H658.939L759.164 642.017L725.451 689.688L624.645 616.34L663.621 736.417L608.578 755.723L576.693 657.473C574.2 649.607 572.981 641.241 572.981 632.738C572.981 596.701 594.81 558.005 634.229 542.964V536.815C594.838 521.774 572.981 483.05 572.981 447.041C572.981 438.537 574.2 430.172 576.693 422.305L608.578 324.055L663.621 343.362L624.645 463.439L725.451 390.091L759.164 437.761L658.939 510.611H782.323V510.694Z"/>
    <path fill="#ef4444" d="M344.47 510.694V569.168H467.853L367.629 642.045L401.342 689.715L502.148 616.367L463.172 736.444L518.215 755.778L550.1 657.529C552.593 649.662 553.812 641.297 553.812 632.793C553.812 596.756 531.983 558.06 492.563 543.019V536.87C531.955 521.829 553.812 483.105 553.812 447.096C553.812 438.593 552.593 430.227 550.1 422.361L518.215 324.111L463.172 343.417L502.148 463.494L401.342 390.146L367.629 437.817L467.853 510.666H344.47V510.694Z"/>
  </symbol>

  <!-- =================================================================
       Real Lucide icons (24x24, stroke-width=2, stroke-linecap=round,
       stroke-linejoin=round). Each is the exact path from lucide.dev.
  ================================================================== -->
  <symbol id="lc-scan-line" viewBox="0 0 24 24" fill="none" stroke="currentColor" stroke-width="2" stroke-linecap="round" stroke-linejoin="round">
    <path d="M3 7V5a2 2 0 0 1 2-2h2"/>
    <path d="M17 3h2a2 2 0 0 1 2 2v2"/>
    <path d="M21 17v2a2 2 0 0 1-2 2h-2"/>
    <path d="M7 21H5a2 2 0 0 1-2-2v-2"/>
    <path d="M7 12h10"/>
  </symbol>
  <symbol id="lc-bookmark-plus" viewBox="0 0 24 24" fill="none" stroke="currentColor" stroke-width="2" stroke-linecap="round" stroke-linejoin="round">
    <path d="m19 21-7-4-7 4V5a2 2 0 0 1 2-2h10a2 2 0 0 1 2 2v16z"/>
    <line x1="12" x2="12" y1="7" y2="13"/>
    <line x1="15" x2="9" y1="10" y2="10"/>
  </symbol>
  <symbol id="lc-plus" viewBox="0 0 24 24" fill="none" stroke="currentColor" stroke-width="2" stroke-linecap="round" stroke-linejoin="round">
    <path d="M5 12h14"/>
    <path d="M12 5v14"/>
  </symbol>
  <symbol id="lc-crosshair" viewBox="0 0 24 24" fill="none" stroke="currentColor" stroke-width="2" stroke-linecap="round" stroke-linejoin="round">
    <circle cx="12" cy="12" r="10"/>
    <line x1="22" x2="18" y1="12" y2="12"/>
    <line x1="6" x2="2" y1="12" y2="12"/>
    <line x1="12" x2="12" y1="6" y2="2"/>
    <line x1="12" x2="12" y1="22" y2="18"/>
  </symbol>
  <symbol id="lc-palette" viewBox="0 0 24 24" fill="none" stroke="currentColor" stroke-width="2" stroke-linecap="round" stroke-linejoin="round">
    <circle cx="13.5" cy="6.5" r=".5" fill="currentColor"/>
    <circle cx="17.5" cy="10.5" r=".5" fill="currentColor"/>
    <circle cx="8.5" cy="7.5" r=".5" fill="currentColor"/>
    <circle cx="6.5" cy="12.5" r=".5" fill="currentColor"/>
    <path d="M12 2C6.5 2 2 6.5 2 12s4.5 10 10 10c.926 0 1.648-.746 1.648-1.688 0-.437-.18-.835-.437-1.125-.29-.289-.438-.652-.438-1.125a1.64 1.64 0 0 1 1.668-1.668h1.996c3.051 0 5.555-2.503 5.555-5.554C21.965 6.012 17.461 2 12 2z"/>
  </symbol>
  <symbol id="lc-paintbrush" viewBox="0 0 24 24" fill="none" stroke="currentColor" stroke-width="2" stroke-linecap="round" stroke-linejoin="round">
    <path d="M18.37 2.63 14 7l-1.59-1.59a2 2 0 0 0-2.82 0L8 7l9 9 1.59-1.59a2 2 0 0 0 0-2.82L17 10l4.37-4.37a2.12 2.12 0 1 0-3-3Z"/>
    <path d="M9 8c-2 3-4 3.5-7 4l8 10c2-1 6-5 6-7"/>
    <path d="M14.5 17.5 4.5 15"/>
  </symbol>
  <symbol id="lc-trash-2" viewBox="0 0 24 24" fill="none" stroke="currentColor" stroke-width="2" stroke-linecap="round" stroke-linejoin="round">
    <path d="M3 6h18"/>
    <path d="M19 6v14a2 2 0 0 1-2 2H7a2 2 0 0 1-2-2V6"/>
    <path d="M8 6V4a2 2 0 0 1 2-2h4a2 2 0 0 1 2 2v2"/>
    <line x1="10" x2="10" y1="11" y2="17"/>
    <line x1="14" x2="14" y1="11" y2="17"/>
  </symbol>
  <symbol id="lc-play" viewBox="0 0 24 24" fill="none" stroke="currentColor" stroke-width="2" stroke-linecap="round" stroke-linejoin="round">
    <polygon points="6 3 20 12 6 21 6 3"/>
  </symbol>
  <symbol id="lc-fast-forward" viewBox="0 0 24 24" fill="none" stroke="currentColor" stroke-width="2" stroke-linecap="round" stroke-linejoin="round">
    <polygon points="13 19 22 12 13 5 13 19"/>
    <polygon points="2 19 11 12 2 5 2 19"/>
  </symbol>
  <symbol id="lc-list-plus" viewBox="0 0 24 24" fill="none" stroke="currentColor" stroke-width="2" stroke-linecap="round" stroke-linejoin="round">
    <path d="M11 12H3"/>
    <path d="M16 6H3"/>
    <path d="M16 18H3"/>
    <path d="M18 9v6"/>
    <path d="M21 12h-6"/>
  </symbol>
  <symbol id="lc-list-checks" viewBox="0 0 24 24" fill="none" stroke="currentColor" stroke-width="2" stroke-linecap="round" stroke-linejoin="round">
    <path d="m3 17 2 2 4-4"/>
    <path d="m3 7 2 2 4-4"/>
    <path d="M13 6h8"/>
    <path d="M13 12h8"/>
    <path d="M13 18h8"/>
  </symbol>
  <symbol id="lc-share" viewBox="0 0 24 24" fill="none" stroke="currentColor" stroke-width="2" stroke-linecap="round" stroke-linejoin="round">
    <path d="M4 12v8a2 2 0 0 0 2 2h12a2 2 0 0 0 2-2v-8"/>
    <polyline points="16 6 12 2 8 6"/>
    <line x1="12" x2="12" y1="2" y2="15"/>
  </symbol>
  <symbol id="lc-check" viewBox="0 0 24 24" fill="none" stroke="currentColor" stroke-width="2" stroke-linecap="round" stroke-linejoin="round">
    <polyline points="20 6 9 17 4 12"/>
  </symbol>
  <symbol id="lc-x" viewBox="0 0 24 24" fill="none" stroke="currentColor" stroke-width="2" stroke-linecap="round" stroke-linejoin="round">
    <path d="M18 6 6 18"/>
    <path d="m6 6 12 12"/>
  </symbol>
  <symbol id="lc-clipboard" viewBox="0 0 24 24" fill="none" stroke="currentColor" stroke-width="2" stroke-linecap="round" stroke-linejoin="round">
    <rect width="8" height="4" x="8" y="2" rx="1" ry="1"/>
    <path d="M16 4h2a2 2 0 0 1 2 2v14a2 2 0 0 1-2 2H6a2 2 0 0 1-2-2V6a2 2 0 0 1 2-2h2"/>
  </symbol>
  <symbol id="lc-chevron-down" viewBox="0 0 24 24" fill="none" stroke="currentColor" stroke-width="2" stroke-linecap="round" stroke-linejoin="round">
    <path d="m6 9 6 6 6-6"/>
  </symbol>
  <symbol id="lc-refresh-cw" viewBox="0 0 24 24" fill="none" stroke="currentColor" stroke-width="2" stroke-linecap="round" stroke-linejoin="round">
    <path d="M21 12a9 9 0 0 0-9-9 9.75 9.75 0 0 0-6.74 2.74L3 8"/>
    <path d="M3 3v5h5"/>
    <path d="M3 12a9 9 0 0 0 9 9 9.75 9.75 0 0 0 6.74-2.74L21 16"/>
    <path d="M16 16h5v5"/>
  </symbol>
  <symbol id="lc-folder-open" viewBox="0 0 24 24" fill="none" stroke="currentColor" stroke-width="2" stroke-linecap="round" stroke-linejoin="round">
    <path d="m6 14 1.5-2.9A2 2 0 0 1 9.24 10H20a2 2 0 0 1 1.94 2.5l-1.54 6a2 2 0 0 1-1.95 1.5H4a2 2 0 0 1-2-2V5a2 2 0 0 1 2-2h3.9a2 2 0 0 1 1.69.9l.81 1.2a2 2 0 0 0 1.67.9H18a2 2 0 0 1 2 2v2"/>
  </symbol>
  <symbol id="lc-file-spreadsheet" viewBox="0 0 24 24" fill="none" stroke="currentColor" stroke-width="2" stroke-linecap="round" stroke-linejoin="round">
    <path d="M14.5 2H6a2 2 0 0 0-2 2v16a2 2 0 0 0 2 2h12a2 2 0 0 0 2-2V7.5L14.5 2z"/>
    <polyline points="14 2 14 8 20 8"/>
    <path d="M8 13h2"/>
    <path d="M8 17h2"/>
    <path d="M14 13h2"/>
    <path d="M14 17h2"/>
  </symbol>
  <symbol id="lc-globe" viewBox="0 0 24 24" fill="none" stroke="currentColor" stroke-width="2" stroke-linecap="round" stroke-linejoin="round">
    <circle cx="12" cy="12" r="10"/>
    <path d="M12 2a14.5 14.5 0 0 0 0 20 14.5 14.5 0 0 0 0-20"/>
    <path d="M2 12h20"/>
  </symbol>
  <symbol id="lc-download" viewBox="0 0 24 24" fill="none" stroke="currentColor" stroke-width="2" stroke-linecap="round" stroke-linejoin="round">
    <path d="M21 15v4a2 2 0 0 1-2 2H5a2 2 0 0 1-2-2v-4"/>
    <polyline points="7 10 12 15 17 10"/>
    <line x1="12" x2="12" y1="15" y2="3"/>
  </symbol>
  <symbol id="lc-grip-vertical" viewBox="0 0 24 24" fill="none" stroke="currentColor" stroke-width="2" stroke-linecap="round" stroke-linejoin="round">
    <circle cx="9" cy="5" r="1"/>
    <circle cx="9" cy="12" r="1"/>
    <circle cx="9" cy="19" r="1"/>
    <circle cx="15" cy="5" r="1"/>
    <circle cx="15" cy="12" r="1"/>
    <circle cx="15" cy="19" r="1"/>
  </symbol>
</svg>
